<?xml version="1.0" standalone="no"?>
<!DOCTYPE svg PUBLIC "-//W3C//DTD SVG 20010904//EN"
        "http://www.w3.org/TR/2001/REC-SVG-20010904/DTD/svg10.dtd">
<svg version="1.0" xmlns="http://www.w3.org/2000/svg"
     width="260.000000pt" height="260.000000pt" viewBox="0 0 260.000000 260.000000"
     preserveAspectRatio="xMidYMid meet">
    <metadata>
        Created by potrace 1.11, written by Peter Selinger 2001-2013
    </metadata>
    <g transform="translate(0.000000,260.000000) scale(0.100000,-0.100000)"
       fill="#000000" stroke="none">
        <path d="M1093 2523 c-10 -3 -13 -42 -13 -143 l0 -139 -37 -10 c-88 -24 -86
-25 -98 66 -12 90 -21 106 -56 101 -22 -3 -24 -8 -24 -53 0 -27 3 -77 7 -111
l7 -60 -40 -18 c-23 -10 -44 -14 -48 -10 -5 5 -18 47 -31 94 -31 114 -36 122
-68 118 -39 -4 -39 -36 -2 -163 l31 -106 -28 -22 c-163 -125 -305 -325 -357
-507 -15 -53 -18 -56 -65 -73 -62 -22 -94 -48 -116 -93 -36 -77 17 -157 114
-170 l48 -6 13 -57 c17 -79 90 -231 152 -313 60 -81 139 -150 239 -209 50 -29
68 -44 58 -49 -8 -4 -108 -49 -223 -101 -114 -51 -211 -100 -214 -108 -3 -8 4
-49 15 -93 l21 -79 -75 -47 c-120 -75 -118 -71 -35 -72 58 0 80 4 102 20 l29
20 6 -20 c5 -16 15 -20 46 -20 21 0 39 4 39 8 0 5 -14 57 -30 115 -17 59 -30
113 -30 121 0 24 48 26 64 2 13 -20 14 -20 33 -4 31 28 37 21 14 -16 -32 -51
-25 -64 14 -26 33 32 61 35 40 5 -6 -8 -23 -32 -39 -55 -16 -22 -27 -43 -24
-45 2 -3 23 11 46 31 49 41 56 25 12 -26 -41 -49 -38 -72 4 -31 45 44 57 23
16 -29 -33 -42 -20 -59 15 -20 20 22 30 19 30 -8 0 -16 44 -17 575 -19 l575
-2 68 79 c75 87 111 109 53 33 -20 -27 -46 -60 -57 -75 l-20 -28 20 0 c12 0
37 18 58 40 20 23 42 39 50 36 15 -6 100 101 88 112 -4 4 -46 -35 -94 -86 -47
-50 -90 -92 -94 -92 -4 0 34 54 84 120 51 66 89 123 85 127 -4 4 -43 -31 -86
-77 -43 -46 -81 -82 -84 -80 -2 3 22 41 55 84 32 44 59 84 59 90 0 6 -22 -12
-50 -39 -27 -27 -50 -45 -50 -41 0 5 10 35 21 67 25 67 23 66 127 42 84 -20
81 -10 52 -163 -31 -161 -36 -150 68 -150 l87 1 -25 19 c-14 10 -33 25 -44 32
-18 14 -18 18 4 152 16 91 20 140 13 147 -5 5 -103 32 -217 58 -114 27 -210
51 -213 54 -3 3 8 9 23 13 55 14 164 63 217 98 72 48 173 152 227 235 40 60
88 175 104 252 5 21 13 28 44 33 82 13 151 91 137 156 -11 52 -99 110 -166
110 -11 0 -21 20 -34 68 -39 142 -149 324 -268 440 l-55 54 31 84 c32 91 29
114 -18 114 -20 0 -28 -12 -52 -76 l-29 -75 -23 19 -24 19 18 109 c10 61 16
118 12 127 -7 18 -52 24 -61 8 -4 -5 -15 -50 -25 -101 -10 -50 -21 -93 -24
-96 -8 -8 -57 18 -57 31 0 6 16 51 36 100 35 87 35 88 16 108 -31 31 -55 9
-92 -85 -18 -46 -36 -87 -40 -91 -4 -5 -26 -3 -49 4 -38 11 -41 15 -41 48 0
20 5 67 10 105 6 38 8 77 5 87 -7 20 -29 31 -50 23 -18 -7 -23 -26 -38 -141
l-12 -88 -50 3 c-88 6 -84 0 -87 125 -3 110 -3 112 -27 115 -41 6 -51 -21 -51
-130 l0 -98 -32 0 c-18 0 -43 -3 -55 -6 -23 -6 -23 -6 -23 115 0 150 -12 177
-67 154z m450 -377 c347 -89 616 -348 702 -676 24 -89 24 -265 1 -343 -33
-113 -102 -220 -206 -321 -65 -63 -107 -96 -128 -101 -18 -3 -38 -12 -45 -19
-13 -14 -141 -57 -217 -74 -163 -37 -458 -40 -609 -7 -311 69 -512 235 -613
506 -26 70 -32 103 -36 197 -3 68 0 137 8 175 16 82 63 195 104 249 18 24 40
57 49 74 29 57 118 144 216 210 53 37 107 71 121 77 14 5 41 17 60 25 35 15
54 20 180 48 98 21 290 12 413 -20z m-1247 -833 c-3 -3 -17 -2 -31 1 -41 10
-43 35 -4 70 l34 30 3 -48 c2 -26 1 -50 -2 -53z m2112 31 c28 -19 28 -28 0
-54 -34 -31 -46 -25 -50 25 -4 50 9 58 50 29z m-1462 -800 c13 -3 24 -8 24
-10 0 -3 -11 -26 -25 -52 -22 -43 -140 -160 -151 -150 -2 3 23 38 56 79 70 86
61 107 -13 30 -27 -29 -53 -51 -59 -49 -5 2 12 30 37 62 25 32 43 61 40 64 -3
3 -25 -13 -48 -36 -43 -43 -57 -45 -57 -10 0 13 21 28 73 52 39 19 78 32 85
30 8 -2 25 -7 38 -10z m346 -42 l198 -4 19 -67 c11 -36 32 -109 47 -161 15
-52 29 -101 31 -107 4 -10 -11 -13 -56 -13 l-61 0 16 25 c24 38 12 39 -31 5
-21 -17 -40 -28 -43 -26 -2 3 17 30 42 61 44 54 55 75 39 75 -4 0 -38 -30 -75
-67 -37 -37 -70 -64 -74 -60 -4 3 23 38 60 78 58 63 80 99 60 99 -4 0 -48 -40
-98 -89 -71 -70 -97 -89 -119 -89 -28 0 -28 1 -9 22 10 11 32 36 48 54 55 64
69 55 15 -9 -44 -53 -38 -49 34 26 101 104 141 153 131 162 -4 4 -67 -53 -140
-126 -149 -149 -201 -176 -69 -36 121 128 177 195 170 202 -11 10 -90 -61
-204 -182 -59 -63 -114 -115 -122 -115 -7 0 27 44 76 98 152 166 171 192 144
192 -5 0 -65 -56 -132 -125 -68 -68 -125 -123 -127 -120 -2 2 40 53 94 115
105 118 121 140 104 140 -6 0 -76 -66 -155 -147 -80 -82 -145 -145 -145 -142
0 4 45 60 101 125 55 66 105 127 110 137 21 39 -13 12 -106 -84 -53 -55 -99
-98 -101 -96 -2 2 25 43 61 90 36 47 65 92 65 99 0 7 -22 -10 -50 -37 -27 -27
-50 -46 -50 -41 0 4 13 33 30 64 16 31 32 65 35 76 4 13 10 16 23 11 9 -5 106
-10 214 -13z m371 -12 c53 -10 57 -14 51 -33 -8 -28 -44 -68 -55 -61 -5 3 -9
15 -9 26 0 12 -3 19 -6 15 -3 -3 -3 -20 1 -37 5 -21 11 -30 21 -26 8 3 14 1
14 -5 0 -21 -23 -99 -30 -104 -7 -4 -70 207 -70 235 0 7 6 10 13 7 7 -2 38
-10 70 -17z m-1118 -120 c-32 -34 -40 -36 -49 -15 -3 9 5 20 22 29 46 25 58
19 27 -14z m672 -52 c-115 -131 -144 -161 -156 -157 -7 3 31 50 90 112 103
109 150 141 66 45z m-627 28 c0 -15 -18 -31 -26 -23 -7 7 7 37 17 37 5 0 9 -6
9 -14z m276 -34 c-13 -26 -45 -60 -47 -51 -5 23 -4 47 2 43 4 -2 18 9 31 24
27 34 35 25 14 -16z m458 36 c-22 -36 -170 -188 -183 -188 -9 0 29 45 84 100
98 99 113 112 99 88z m-365 -73 c-13 -19 -25 -30 -27 -25 -4 12 38 73 46 66 2
-3 -6 -21 -19 -41z m31 -45 c-55 -63 -80 -82 -80 -64 0 10 133 144 138 139 3
-2 -23 -36 -58 -75z m409 23 c-33 -45 -84 -93 -98 -93 -9 0 8 23 39 55 52 52
87 75 59 38z m482 -16 c-13 -12 -20 -15 -16 -7 14 26 28 41 33 35 3 -3 -5 -16
-17 -28z m-827 -9 c-16 -26 -48 -58 -58 -58 -5 0 5 16 24 35 35 36 47 44 34
23z m361 -42 c-16 -23 -45 -42 -45 -29 0 10 42 53 52 53 5 0 1 -11 -7 -24z"/>
        <path d="M1240 1727 c-88 -70 -52 -217 54 -217 35 0 95 72 91 110 -1 8 -3 24
-3 36 -4 54 -103 104 -142 71z"/>
        <path d="M1445 1700 c-24 -25 -29 -38 -28 -79 1 -81 47 -128 112 -115 46 9 71
44 75 100 4 60 -16 99 -57 114 -48 16 -72 12 -102 -20z"/>
        <path d="M751 1506 c-12 -14 -5 -92 9 -111 5 -5 14 -30 21 -55 7 -25 21 -56
31 -69 10 -13 18 -30 18 -37 0 -8 4 -14 9 -14 5 0 12 -8 15 -17 16 -47 171
-182 246 -214 14 -6 38 -16 55 -23 98 -43 182 -60 305 -61 163 0 232 14 346
71 87 43 195 150 215 212 6 20 15 42 20 47 11 15 29 133 22 151 -6 17 -46 29
-68 20 -8 -3 -16 -18 -17 -33 -4 -80 -45 -180 -97 -237 -28 -31 -125 -96 -142
-96 -6 0 -23 -7 -37 -15 -59 -32 -268 -47 -354 -25 -98 25 -188 54 -188 62 0
4 -7 8 -16 8 -9 0 -26 8 -39 18 -12 9 -33 24 -45 32 -76 51 -190 192 -190 233
0 9 -4 18 -8 21 -5 3 -15 31 -22 63 -7 32 -20 64 -28 71 -21 16 -47 15 -61 -2z"/>
        <path d="M2000 155 c-42 -43 -72 -56 -35 -15 10 11 16 22 14 25 -3 2 -17 -11
-32 -30 -27 -33 -27 -34 -4 -33 12 1 31 9 41 17 18 15 19 15 13 -1 -12 -33 8
-18 36 26 45 72 32 77 -33 11z"/>
    </g>
</svg>
